HIERARCHY
ROOT Hips
{
	OFFSET 0.00000 0.00000 0.00000
	CHANNELS 6 Xposition Yposition Zposition Yrotation Zrotation Xrotation 
	JOINT Lumbar
	{
		OFFSET 0 0 0
		CHANNELS 3 Zrotation Xrotation Yrotation
		JOINT Neck
		{
			OFFSET 0.00 0.2701 0.00
			CHANNELS 3 Zrotation Xrotation Yrotation
			End Site
			{
				OFFSET 0.00 0.1379 0.00
			}
		}
		JOINT RightShoulder
		{
			OFFSET 0.0119 0.2289 0.1181
			CHANNELS 3 Zrotation Xrotation Yrotation
			JOINT RightElbow
			{
				OFFSET 0.00 -0.1475 0.00
				CHANNELS 2 Zrotation Yrotation
				JOINT RightWrist
				{
					OFFSET 0.00 -0.1605 0.00
					CHANNELS 2 Zrotation Xrotation
					End Site
					{
						OFFSET 0.0040 -0.1068 0.0006
					}
				}
			}
		}
		JOINT LeftShoulder
		{
			OFFSET 0.0119 0.2289 -0.1181
			CHANNELS 3 Zrotation Xrotation Yrotation
			JOINT LeftElbow
			{
				OFFSET 0.00 -0.1475 0.00
				CHANNELS 2 Zrotation Yrotation
				JOINT LeftWrist
				{
					OFFSET 0.00 -0.1605 0.00
					CHANNELS 2 Zrotation Xrotation
					End Site
					{
						OFFSET 0.0040 -0.1068 -0.0006
					}
				}
			}
		}
	}
	JOINT RightHip
	{
		OFFSET 0.0316 -0.0424 0.0458
		CHANNELS 3 Zrotation Xrotation Yrotation
		JOINT RightKnee
		{
			OFFSET 0.00 -0.2438 0.00
			CHANNELS 1 Zrotation
			JOINT RightAnkle
			{
				OFFSET 0.00 -0.2449 0.00
				CHANNELS 3 Zrotation Xrotation Yrotation
				End Site
				{
					OFFSET 0.1237 -0.0542 0.0051
				}
			}
		}
	}
	JOINT LeftHip
	{
		OFFSET 0.0316 -0.0424 -0.0458
		CHANNELS 3 Zrotation Xrotation Yrotation
		JOINT LeftKnee
		{
			OFFSET 0.00 -0.2438 0.00
			CHANNELS 1 Zrotation
			JOINT LeftAnkle
			{
				OFFSET 0.00 -0.2449 0.00
				CHANNELS 3 Zrotation Xrotation Yrotation
				End Site
				{
					OFFSET 0.1237 -0.0542 -0.0051
				}
			}
		}
	}
}
MOTION
Frames: 11
Frame Time: 0.02
-0.35578 0.42833 0.07783 905.50203 0 -5.29714 -5.44848 4.60731 -2.80561 -6.30991 21.33983 3.94885 83.32161 -43.70205 37.88267 137.61953 111.76721 -79.69158 -22.95842 20.6182 -10.72625 -40.52593 27.93817 -117.98438 -41.33177 7.76145 61.8054 0.42596 -8.08123 -60.09997 -4.46452 0.04999 11.90766 62.24376 9.41072 -0.68108 -56.99848 0.08416 -0.01874 -7.57391
-0.35549 0.42821 0.07774 905.50798 0 -5.27818 -5.55116 4.57891 -3.10304 -5.94616 21.94106 4.09665 84.45319 -43.56728 39.41153 137.62615 111.75027 -79.70103 -22.98216 19.66285 -11.05238 -41.2994 27.01443 -118.06509 -39.26891 7.9355 61.71867 0.33536 -8.13399 -59.99275 -4.06477 0.16218 12.04758 62.29481 9.45596 -0.57695 -57.18469 1.00624 0.09321 -6.81968
-0.35516 0.428 0.07764 905.51362 0 -5.26045 -5.67003 4.56772 -3.34165 -5.59272 22.37015 4.22521 84.78961 -43.21608 40.59319 137.62453 111.49124 -79.6983 -22.97473 18.56746 -11.03774 -42.29108 26.89572 -117.38702 -36.7699 8.04708 61.59678 0.23934 -8.43163 -59.90432 -3.47821 0.2369 11.82279 62.41756 9.5026 -0.24784 -57.52668 2.08284 0.37254 -5.45239
-0.35486 0.42783 0.07756 905.51959 0 -5.24282 -5.77761 4.55202 -3.60008 -5.24463 22.86302 4.36203 85.46222 -42.95257 41.90743 137.62394 111.37472 -79.69777 -22.97383 17.55859 -11.17941 -43.15258 26.41966 -117.07597 -34.56702 8.18128 61.49608 0.14667 -8.60917 -59.82023 -2.95286 0.32079 11.72511 62.50544 9.54755 -0.02643 -57.79604 3.08783 0.60827 -4.33642
-0.35452 0.42765 0.07744 905.52515 0 -5.22261 -5.90206 4.52372 -3.88946 -4.85658 23.40955 4.49896 86.21573 -42.71367 43.33515 137.62482 111.1175 -79.69891 -22.97652 16.45261 -11.30773 -44.13819 25.91366 -116.69011 -31.93757 8.3427 61.37308 0.05055 -8.81922 -59.67976 -2.5263 0.441 11.79129 62.60012 9.59602 0.2182 -58.06838 4.10449 0.70905 -3.32151
-0.35425 0.42748 0.07738 905.53142 0 -5.20802 -5.99512 4.52503 -4.09945 -4.55376 23.80632 4.63185 86.62343 -42.37969 44.44534 137.62432 111.09356 -79.6982 -22.97476 15.51722 -11.38522 -44.91981 25.65871 -116.26765 -30.09025 8.43161 61.28802 -0.03994 -9.02243 -59.66182 -1.84944 0.47307 11.43162 62.69867 9.63832 0.46853 -58.37323 5.13204 1.12899 -1.96344
-0.3542 0.42733 0.07748 905.53895 0 -5.20824 -5.99738 4.60618 -4.10809 -4.47786 23.83072 4.75798 86.24847 -41.83932 44.71362 137.62446 111.81795 -79.69842 -22.9754 15.07021 -11.41178 -45.08417 25.90309 -115.99284 -30.60809 8.33404 61.31954 -0.11147 -9.13541 -59.97907 -0.53562 0.30022 9.95681 62.79144 9.6575 0.67106 -58.73101 6.14196 2.40083 0.28588
-0.35424 0.42719 0.07762 905.54731 0 -5.21407 -5.96752 4.71587 -4.0381 -4.48798 23.71165 4.88099 85.56061 -41.21315 44.68188 137.62449 112.77797 -79.69846 -22.97549 14.80263 -11.39892 -45.03718 26.37092 -115.69516 -31.91375 8.16553 61.38991 -0.17754 -9.23557 -60.41885 1.02419 0.03442 8.07163 62.8858 9.67151 0.87301 -59.11646 7.15784 3.98613 2.84159
-0.35424 0.42706 0.07774 905.55569 0 -5.21761 -5.95235 4.81092 -4.00147 -4.46224 23.65981 5.00596 85.03374 -40.62704 44.81876 137.62443 113.60208 -79.69838 -22.97535 14.46396 -11.40132 -45.08776 26.73363 -115.36292 -32.796 8.03005 61.44046 -0.24745 -9.3498 -60.8021 2.47768 -0.20806 6.39144 62.97922 9.69176 1.08068 -59.48926 8.17721 5.41972 5.1942
-0.35423 0.4269 0.07787 905.56226 0 -5.22025 -5.93713 4.91395 -3.97242 -4.42358 23.59289 5.12813 84.39862 -40.02823 44.80792 137.62447 114.54024 -79.69844 -22.97556 14.07663 -11.40304 -45.13771 27.1397 -115.18841 -33.93487 7.88902 61.49899 -0.31181 -9.43828 -61.1902 3.91785 -0.37185 4.61718 63.07624 9.6958 1.27319 -59.86823 9.17822 6.89675 7.83595
-0.35425 0.42679 0.07798 905.57297 0 -5.22588 -5.91444 5.0065 -3.91021 -4.43172 23.52605 5.25542 83.92607 -39.43875 45.03745 137.62446 115.29878 -79.69842 -22.97553 13.83467 -11.40111 -45.13812 27.49789 -114.6971 -34.73681 7.74361 61.5505 -0.38637 -9.57346 -61.59621 5.43771 -0.72126 2.95034 63.16493 9.73216 1.49419 -60.23827 10.214 8.35743 9.94269
